<?xml version="1.0"?><svg fill="#000000" xmlns="http://www.w3.org/2000/svg"  viewBox="0 0 30 30" width="30px" height="30px">    <path d="M 6 4 C 4.895 4 4 4.895 4 6 L 4 24 C 4 25.105 4.895 26 6 26 L 24 26 C 25.105 26 26 25.105 26 24 L 26 6 C 26 4.895 25.105 4 24 4 L 6 4 z M 10.320312 7 L 14.736328 7 C 16.688328 7 18.064297 7.4587656 17.904297 9.6347656 C 17.760297 11.639766 16.464844 12.007812 16.464844 12.007812 C 16.464844 12.007812 16.885328 12.780187 16.736328 14.242188 C 16.581328 15.783188 16.752484 16.354609 16.896484 16.599609 L 14.273438 16.599609 C 14.273438 16.599609 14.123266 16.284875 14.197266 15.671875 C 14.427266 13.847875 14.167578 12.867188 12.892578 12.867188 L 11.361328 12.867188 L 10.539062 16.599609 L 8.2636719 16.599609 L 10.320312 7 z M 12.224609 8.6152344 L 11.701172 11.251953 L 14.085938 11.251953 C 14.806938 11.251953 15.575719 11.010031 15.761719 10.082031 C 15.953719 9.1380312 15.286031 8.6152344 14.582031 8.6152344 L 12.224609 8.6152344 z M 19.179688 14.466797 L 19.6875 17.650391 L 22.738281 17.650391 L 19.964844 19.703125 L 20.603516 23 L 18.027344 21 L 14.736328 23 L 16.283203 19.591797 L 14.203125 17.667969 L 17.404297 17.667969 L 19.179688 14.466797 z"/></svg>